<svg width="24" height="24" viewBox="0 0 24 24" fill="none" xmlns="http://www.w3.org/2000/svg">
<mask id="mask0_28_7" style="mask-type:alpha" maskUnits="userSpaceOnUse" x="0" y="0" width="24" height="24">
<rect width="24" height="24" fill="#D9D9D9"/>
</mask>
<g mask="url(#mask0_28_7)">
<path d="M13 17.5728C13.7334 17.2228 14.4709 16.9603 15.2125 16.7853C15.9542 16.6103 16.7167 16.5228 17.5 16.5228C18.1 16.5228 18.6875 16.5728 19.2625 16.6728C19.8375 16.7728 20.4167 16.9228 21 17.1228V7.22279C20.45 6.98946 19.8792 6.81446 19.2875 6.69779C18.6959 6.58113 18.1 6.52279 17.5 6.52279C16.7167 6.52279 15.9417 6.62279 15.175 6.82279C14.4084 7.02279 13.6834 7.32279 13 7.72279V17.5728ZM12.0424 20.4783C11.7997 20.4783 11.56 20.4491 11.3234 20.3908C11.0868 20.3324 10.8721 20.2438 10.6794 20.125C10.0388 19.7511 9.36635 19.4612 8.66205 19.2554C7.95775 19.0496 7.23708 18.9467 6.50003 18.9467C5.83219 18.9467 5.17628 19.0408 4.5323 19.2288C3.88832 19.4168 3.26742 19.6681 2.6696 19.9826C2.18772 20.2319 1.71597 20.2204 1.25435 19.9483C0.792751 19.6761 0.561951 19.2792 0.561951 18.7576V6.72172C0.561951 6.40648 0.633701 6.11278 0.777201 5.84062C0.920667 5.56843 1.13588 5.36429 1.42285 5.22819C2.2156 4.84486 3.03154 4.55845 3.87068 4.36897C4.70981 4.17947 5.57162 4.08472 6.4561 4.08472C7.44263 4.08472 8.40311 4.20972 9.33753 4.45972C10.2719 4.70972 11.1594 5.09885 12 5.62712C12.85 5.10828 13.7399 4.72151 14.6696 4.46679C15.5993 4.21208 16.5574 4.08472 17.544 4.08472C18.4284 4.08472 19.2902 4.17947 20.1294 4.36897C20.9685 4.55845 21.7844 4.84486 22.5772 5.22819C22.8642 5.36429 23.0794 5.56843 23.2229 5.84062C23.3664 6.11278 23.4381 6.40648 23.4381 6.72172V18.9695C23.4381 19.4565 23.2097 19.8118 22.7528 20.0353C22.2959 20.2589 21.8218 20.2413 21.3305 19.9826C20.7326 19.6681 20.1117 19.4168 19.4678 19.2288C18.8238 19.0408 18.1679 18.9467 17.5 18.9467C16.7689 18.9467 16.0614 19.052 15.3778 19.2625C14.6941 19.473 14.0366 19.7605 13.4055 20.125C13.2127 20.2438 12.998 20.3324 12.7615 20.3908C12.5249 20.4491 12.2852 20.4783 12.0424 20.4783ZM14 9.26954C14 9.12863 14.0495 8.98379 14.1484 8.83504C14.2473 8.68629 14.3634 8.58692 14.4968 8.53692C14.9801 8.37025 15.4682 8.2429 15.9609 8.15487C16.4537 8.06682 16.9667 8.02279 17.5 8.02279C17.8334 8.02279 18.1625 8.04394 18.4875 8.08624C18.8125 8.12854 19.1334 8.18354 19.45 8.25124C19.6 8.28508 19.7292 8.36967 19.8375 8.50504C19.9459 8.64042 20 8.79272 20 8.96192C20 9.24525 19.9084 9.45123 19.725 9.57987C19.5417 9.70848 19.3084 9.73946 19.025 9.67279C18.7823 9.62279 18.5364 9.58529 18.2875 9.56029C18.0386 9.53529 17.7761 9.52279 17.5 9.52279C17.0667 9.52279 16.6464 9.5621 16.2392 9.64072C15.8319 9.71935 15.4366 9.82533 15.0533 9.95867C14.745 10.0753 14.4924 10.0662 14.2955 9.93132C14.0985 9.7964 14 9.57581 14 9.26954ZM14 14.7695C14 14.6286 14.0495 14.4838 14.1484 14.335C14.2473 14.1863 14.3634 14.0869 14.4968 14.0369C14.9801 13.8703 15.4682 13.7429 15.9609 13.6549C16.4537 13.5668 16.9667 13.5228 17.5 13.5228C17.8334 13.5228 18.1625 13.5439 18.4875 13.5862C18.8125 13.6286 19.1334 13.6836 19.45 13.7512C19.6 13.7851 19.7292 13.8697 19.8375 14.005C19.9459 14.1404 20 14.2927 20 14.4619C20 14.7453 19.9084 14.9512 19.725 15.0799C19.5417 15.2085 19.3084 15.2395 19.025 15.1728C18.7823 15.1228 18.5364 15.0853 18.2875 15.0603C18.0386 15.0353 17.7761 15.0228 17.5 15.0228C17.0667 15.0228 16.6464 15.0579 16.2392 15.1282C15.8319 15.1985 15.4366 15.3003 15.0533 15.4337C14.745 15.5503 14.4924 15.5454 14.2955 15.419C14.0985 15.2925 14 15.0761 14 14.7695ZM14 12.0195C14 11.8786 14.0495 11.7338 14.1484 11.585C14.2473 11.4363 14.3634 11.3369 14.4968 11.2869C14.9801 11.1203 15.4682 10.9929 15.9609 10.9049C16.4537 10.8168 16.9667 10.7728 17.5 10.7728C17.8334 10.7728 18.1625 10.7939 18.4875 10.8362C18.8125 10.8785 19.1334 10.9335 19.45 11.0012C19.6 11.0351 19.7292 11.1197 19.8375 11.255C19.9459 11.3904 20 11.5427 20 11.7119C20 11.9953 19.9084 12.2012 19.725 12.3299C19.5417 12.4585 19.3084 12.4895 19.025 12.4228C18.7823 12.3728 18.5364 12.3353 18.2875 12.3103C18.0386 12.2853 17.7761 12.2728 17.5 12.2728C17.0667 12.2728 16.6464 12.3121 16.2392 12.3907C15.8319 12.4694 15.4366 12.5753 15.0533 12.7087C14.745 12.8253 14.4924 12.8162 14.2955 12.6813C14.0985 12.5464 14 12.3258 14 12.0195Z" fill="url(#paint0_linear_28_7)"/>
</g>
<defs>
<linearGradient id="paint0_linear_28_7" x1="12" y1="4.08472" x2="12" y2="20.4783" gradientUnits="userSpaceOnUse">
<stop stop-color="#B6F829"/>
<stop offset="1" stop-color="#67DD0A"/>
</linearGradient>
</defs>
</svg>
