<svg width="24" height="24" viewBox="0 0 24 24" fill="none" xmlns="http://www.w3.org/2000/svg">
<mask id="mask0_28_55" style="mask-type:alpha" maskUnits="userSpaceOnUse" x="0" y="0" width="24" height="24">
<rect width="24" height="24" fill="#D9D9D9"/>
</mask>
<g mask="url(#mask0_28_55)">
<path d="M11.3771 22.4804L15.9554 9.83041H19.0304L23.6087 22.4804H20.788L19.9391 20.024H15.0185L14.1696 22.4805L11.3771 22.4804ZM3.77388 19.6076L1.90755 17.7413L6.87273 12.7761C6.1952 12.0797 5.60715 11.3541 5.1086 10.5994C4.61005 9.84473 4.17962 9.03477 3.8173 8.16956H6.7369C6.99487 8.66882 7.28581 9.13657 7.60973 9.57281C7.93365 10.009 8.3101 10.4547 8.73908 10.9098C9.27023 10.3409 9.81044 9.60069 10.3597 8.68911C10.909 7.77752 11.3195 6.93767 11.5912 6.16956H0.434753V3.51953H7.43473V1.51953H10.0848V3.51953H17.0848V6.16956H14.3826C14.0138 7.32246 13.4723 8.52752 12.7582 9.78476C12.044 11.042 11.317 12.0511 10.5772 12.812L12.2989 14.5695L11.3086 17.3402L8.71083 14.6815L3.77388 19.6076ZM15.8413 17.6239H19.1022L17.4717 12.8913L15.8413 17.6239Z" fill="url(#paint0_linear_28_55)"/>
</g>
<defs>
<linearGradient id="paint0_linear_28_55" x1="12.0217" y1="1.51953" x2="12.0217" y2="22.4805" gradientUnits="userSpaceOnUse">
<stop stop-color="#B6F829"/>
<stop offset="1" stop-color="#67DD0A"/>
</linearGradient>
</defs>
</svg>
